<?xml version="1.0" encoding="utf-8"?>
<!-- Generator: Adobe Illustrator 21.0.2, SVG Export Plug-In . SVG Version: 6.00 Build 0)  -->
<svg version="1.1" id="Layer_1" xmlns="http://www.w3.org/2000/svg" xmlns:xlink="http://www.w3.org/1999/xlink" x="0px" y="0px"
	 viewBox="0 0 52.6 30" style="enable-background:new 0 0 52.6 30;" xml:space="preserve">
<style type="text/css">
	.st0{fill:#FFFFFF;}
</style>
<g id="Layer_1_1_">
	<g>
		<path class="st0" d="M5.6,22.5c3.2,0,5.2-2,5.2-4.7l0,0c0-2.7-1.9-3.7-3.9-4.1l3.7-3.5V7.7H0.8v2.7h5.7L3.1,14l0.5,2h1.3
			c1.8,0,2.8,0.7,2.8,1.8l0,0c0,1.1-0.9,1.8-2.1,1.8c-1.5,0-2.5-0.6-3.5-1.7L0,20C1.2,21.5,3,22.5,5.6,22.5z"/>
		<path class="st0" d="M19.6,22.5c3.9,0,6.5-3.3,6.5-7.5l0,0c0-4.2-2.6-7.5-6.4-7.5c-3.9,0-6.5,3.3-6.5,7.5l0,0
			C13.2,19.2,15.7,22.5,19.6,22.5z M19.7,19.6c-1.9,0-3.2-2-3.2-4.6l0,0c0-2.7,1.2-4.6,3.2-4.6c1.9,0,3.2,2,3.2,4.6l0,0
			C22.8,17.7,21.6,19.6,19.7,19.6z"/>
		<path class="st0" d="M30.4,22.3h1.9v-3.8c0-0.9,0.4-1.4,1.2-1.4c0.7,0,1.1,0.5,1.1,1.4v3.8h1.9v-3.8c0-0.9,0.4-1.4,1.2-1.4
			s1.1,0.5,1.1,1.4v3.8h1.9v-4.4c0-1.6-0.9-2.5-2.3-2.5c-0.9,0-1.6,0.4-2.2,1.1c-0.4-0.7-1-1.1-1.9-1.1c-1,0-1.6,0.5-2,1.1v-1h-1.9
			C30.4,15.5,30.4,22.3,30.4,22.3z"/>
		<path class="st0" d="M42.6,14.7h2V13h-2V14.7z M42.6,22.3h1.9v-6.8h-1.9V22.3z"/>
		<path class="st0" d="M46.4,22.3h1.9v-3.8c0-0.9,0.5-1.4,1.2-1.4s1.2,0.5,1.2,1.4v3.8h1.9v-4.4c0-1.6-0.9-2.5-2.3-2.5
			c-1,0-1.6,0.5-2,1.1v-1h-1.9C46.4,15.5,46.4,22.3,46.4,22.3z"/>
	</g>
</g>
<g id="Layer_2">
</g>
</svg>
