<?xml version="1.0" encoding="utf-8"?>
<!-- Generator: Adobe Illustrator 22.1.0, SVG Export Plug-In . SVG Version: 6.00 Build 0)  -->
<svg version="1.1" id="Layer_1" xmlns="http://www.w3.org/2000/svg" xmlns:xlink="http://www.w3.org/1999/xlink" x="0px" y="0px"
	 viewBox="0 0 90 30" style="enable-background:new 0 0 90 30;" xml:space="preserve">
<style type="text/css">
	.st0{fill:#FFFFFF;}
	.st1{fill:#FCFCFC;}
</style>
<g>
	<g transform="translate(0,6.5)">
		<g>
			<path class="st0" d="M16.2,15.8c4,0,6.5-3.3,6.5-7.7S20,0.6,16.2,0.6S9.7,4,9.7,8.2S12.2,15.8,16.2,15.8z M16.2,12.8
				c-1.9,0-3.2-2.1-3.2-4.7s1.3-4.7,3.2-4.7s3.2,2.1,3.2,4.7C19.3,10.8,18.2,12.8,16.2,12.8z"/>
		</g>
	</g>
	<g transform="translate(0,6.5)">
		<g>
			<g>
				<g>
					<path class="st0" d="M24.5,18.9c2.5,0,3.9-1.1,3.9-4V12H25v3.3h1.4c0.1,1.3-0.6,1.9-2.1,2.1C24.2,17.4,24.5,18.9,24.5,18.9z
						 M36.8,15.8c4,0,6.5-3.3,6.5-7.7s-2.6-7.6-6.5-7.6s-6.5,3.3-6.5,7.7C30.4,12.4,32.9,15.8,36.8,15.8z M36.9,12.8
						c-1.9,0-3.2-2.1-3.2-4.7s1.3-4.7,3.2-4.7c1.9,0,3.2,2.1,3.2,4.7C40,10.8,38.9,12.8,36.9,12.8z M52.2,15.8c4,0,6.5-3.3,6.5-7.7
						s-2.6-7.6-6.5-7.6s-6.5,3.3-6.5,7.7C45.8,12.4,48.3,15.8,52.2,15.8z M52.2,12.8c-1.9,0-3.2-2.1-3.2-4.7s1.3-4.7,3.2-4.7
						c1.9,0,3.2,2.1,3.2,4.7C55.4,10.8,54.1,12.8,52.2,12.8z M67.4,15.8c4,0,6.5-3.3,6.5-7.7s-2.6-7.6-6.5-7.6s-6.5,3.3-6.5,7.7
						C61,12.4,63.5,15.8,67.4,15.8z M67.6,12.8c-1.9,0-3.2-2.1-3.2-4.7s1.3-4.7,3.2-4.7s3.2,2.1,3.2,4.7
						C70.6,10.8,69.5,12.8,67.6,12.8z M80.3,13.4h3V9.6h3.8V6.7h-3.8V2.8h-3v3.8h-3.8v2.9h3.8V13.4z"/>
				</g>
			</g>
		</g>
	</g>
	<g>
		<path class="st1" d="M4.3,10.6l-2.6,0.7L1,8.5l4.2-1.3h2.3v15H4.3V10.6z"/>
	</g>
</g>
</svg>
