<?xml version="1.0" standalone="no"?><!DOCTYPE svg PUBLIC "-//W3C//DTD SVG 1.1//EN" "http://www.w3.org/Graphics/SVG/1.1/DTD/svg11.dtd"><svg t="1539564216955" class="icon" style="" viewBox="0 0 1024 1024" version="1.1" xmlns="http://www.w3.org/2000/svg" p-id="495" xmlns:xlink="http://www.w3.org/1999/xlink" width="200" height="200"><defs><style type="text/css"></style></defs><path d="M658.57 154.54H364L155.73 362.83v294.56L364 865.67h294.57l208.29-208.28V362.83z m148.19 478L633.68 805.57H388.91L215.83 632.49V387.72l173.08-173.08h244.77l173.08 173.08z" p-id="496" fill="#ffffff"></path><path d="M376.1 438.38l-38.41-79.95-58.4 54.08v192.45l56.44 57.22V472.87l46.25 108.96 55.65-139.92 1.18 296.7h61.14v-457h-65.06L376.1 438.38zM541.06 282.19V738h69.37L743.3 605.94V510.5H641.8l0.38 54.28s28.22-1.57 39.59-0.39 6.66 16.85 6.66 16.85l-85.83 83.88V355.88l85.84 88.58V468l54.87-1.18v-50.5L612.39 282.19z" p-id="497" fill="#ffffff"></path></svg>