<?xml version="1.0" encoding="utf-8"?>
<!-- Generator: Adobe Illustrator 21.0.2, SVG Export Plug-In . SVG Version: 6.00 Build 0)  -->
<svg version="1.1" id="Layer_1" xmlns="http://www.w3.org/2000/svg" xmlns:xlink="http://www.w3.org/1999/xlink" x="0px" y="0px"
	 viewBox="0 0 82.2 30" style="enable-background:new 0 0 82.2 30;" xml:space="preserve">
<style type="text/css">
	.st0{fill:#FFFFFF;}
</style>
<g>
	<path class="st0" d="M10,13.2h6.2l-5,3.5l1.9,5.7l-5-3.4l-5,3.5L5,16.8l-5-3.5h6.2l1.9-5.8L10,13.2z"/>
	<path class="st0" d="M26.7,13.2h6.2l-5,3.5l1.9,5.7l-5-3.5l-5,3.5l1.9-5.7l-5-3.5h6.2l1.9-5.7L26.7,13.2z"/>
	<path class="st0" d="M43,13.2h6.2l-5,3.5l1.9,5.7l-5-3.4l-5,3.5l1.9-5.7l-5-3.5h6.2l1.9-5.8L43,13.2z"/>
	<path class="st0" d="M59.7,13.2h6.2l-5,3.5l1.9,5.7l-5-3.5l-5,3.5l1.9-5.7l-5-3.5h6.2l1.9-5.7L59.7,13.2z"/>
	<path class="st0" d="M76,13.2h6.2l-5,3.5l1.9,5.7l-5-3.4l-5,3.5l1.9-5.7l-5-3.5h6.2l1.9-5.8L76,13.2z"/>
</g>
</svg>
