<?xml version="1.0" standalone="no"?><!DOCTYPE svg PUBLIC "-//W3C//DTD SVG 1.1//EN" "http://www.w3.org/Graphics/SVG/1.1/DTD/svg11.dtd"><svg t="1538209282755" class="icon" style="" viewBox="0 0 2886 1024" version="1.1" xmlns="http://www.w3.org/2000/svg" p-id="3077" xmlns:xlink="http://www.w3.org/1999/xlink" width="563.671875" height="200"><defs><style type="text/css"></style></defs><path d="M757.171842 0.000801C339.725779 0.000801 0 222.745534 0 496.769629s339.725779 497.570067 757.171842 497.570067 756.370602-222.744732 756.370601-497.570067S1174.617905 0.000801 757.171842 0.000801z m0 931.842172C386.998941 931.842973 88.136405 737.141642 88.136405 496.769629S386.998941 62.497525 757.171842 62.497525s668.234197 193.900091 668.234197 434.272104-298.862536 435.073344-668.234197 435.073344z" p-id="3078" fill="#ffffff"></path><path d="M640.992035 470.328707V568.881233H320.496018a52.080603 52.080603 0 0 1-48.074403-32.850842L240.372013 470.328707zM640.992035 320.496819v98.552525H262.806734a53.683083 53.683083 0 0 1-48.074402-31.248361L186.68893 320.496819zM640.992035 595.322154v107.366166l-80.124004 40.863242H381.390261a51.279363 51.279363 0 0 1-47.273163-30.447121l-28.844641-67.304164h230.757133z" p-id="3079" fill="#ffffff"></path><path d="M886.972729 777.203644v62.496724H626.569715V777.203644h30.447121a25.639681 25.639681 0 0 0 26.440922-25.639681V282.037297a25.639681 25.639681 0 0 0-26.440922-25.639682h-24.037201v-32.850841a24.037201 24.037201 0 0 1 14.422321-23.235962l107.366166-44.869442h74.515324v596.122593a25.639681 25.639681 0 0 0 26.440921 25.639681z" p-id="3080" fill="#ffffff"></path><path d="M1208.269987 645.800277l-28.844642 67.304164a51.279363 51.279363 0 0 1-47.273163 30.447121H1017.574856l-80.124004-43.266962h-58.490524V607.340755h90.540125l69.707884 38.459522zM1327.654753 320.496819l-28.844641 67.304164a52.080603 52.080603 0 0 1-48.074403 31.248361h-374.179101V302.068298h94.546326V320.496819zM1272.36919 470.328707l-28.043401 65.701684a51.279363 51.279363 0 0 1-48.074403 32.850842h-320.496018V470.328707zM2373.273011 0.000801A511.992388 511.992388 0 1 0 2884.464159 511.191949 511.191148 511.191148 0 0 0 2373.273011 0.000801z m0 91.341365a405.427462 405.427462 0 0 1 125.794687 19.229761l-121.788487 265.210455-118.583527-268.415415a416.644823 416.644823 0 0 1 112.974847-16.024801z m-419.048543 423.054744a415.843583 415.843583 0 0 1 19.229761-127.397167l219.539772 507.986188a423.054743 423.054743 0 0 1-240.372013-380.589021z m419.048543 421.452263a400.620022 400.620022 0 0 1-120.987247-17.627281l118.583527-272.421615 124.192207 272.421615a407.029942 407.029942 0 0 1-123.390967 17.627281z m60.894243-406.228703h-124.192207l-80.124004 172.26661-197.906291-435.874584a419.849783 419.849783 0 0 1 120.186007-111.372366l152.235608 342.930739h128.198407l160.248009-342.129499a415.843583 415.843583 0 0 1 120.987247 115.378566l-200.310011 428.663424z m114.577326 368.570421l226.750933-507.184948a472.731626 472.731626 0 0 1 17.627281 123.390967 426.259703 426.259703 0 0 1-245.980694 383.793981z" p-id="3081" fill="#ffffff"></path></svg>